<svg width="300.6900039672852" height="54.29239461635374" viewBox="0 0 374.89473684210526 67.69075367879591" class="css-1j8o68f"><defs id="SvgjsDefs1011"></defs><g id="SvgjsG1012" featurekey="nRdZyp-0" transform="matrix(1.023391812865497,0,0,1.023391812865497,-5.1174704791509615,-14.671549334163554)" fill="#ffffff"><g xmlns="http://www.w3.org/2000/svg"><g><g><g><path fill="#ffffff" d="M75.195,72.96c-0.619,0-1.241-0.21-1.75-0.64c-1.146-0.967-1.291-2.681-0.324-3.827l15.609-18.493      L73.122,31.507c-0.967-1.146-0.822-2.859,0.324-3.827c1.146-0.968,2.859-0.823,3.827,0.323L94.36,48.248      c0.854,1.012,0.854,2.492,0,3.503L77.272,71.995C76.735,72.632,75.968,72.96,75.195,72.96z"></path></g></g></g><g><g><g><path fill="#ffffff" d="M24.805,72.96c-0.772,0-1.539-0.328-2.076-0.964L5.641,51.752c-0.854-1.012-0.854-2.492,0-3.503      l17.088-20.245c0.967-1.146,2.681-1.291,3.827-0.324c1.146,0.967,1.291,2.681,0.324,3.827L11.269,50.001l15.609,18.492      c0.967,1.146,0.823,2.859-0.323,3.827C26.045,72.749,25.423,72.96,24.805,72.96z"></path></g></g></g><g><path fill="#ffffff" d="M37.325,72.96c-0.492,0-0.99-0.134-1.438-0.414c-1.271-0.796-1.657-2.471-0.861-3.742L60.37,28.315    c0.796-1.271,2.472-1.656,3.743-0.861c1.271,0.796,1.657,2.471,0.861,3.742L39.63,71.685C39.115,72.508,38.23,72.96,37.325,72.96z    "></path></g></g></g><g id="SvgjsG1013" featurekey="Q4qmbg-0" transform="matrix(4.270487219042687,0,0,4.270487219042687,115.12098436109848,-18.402268005480018)" fill="#ffffff"><path d="M3.26 13.04 l-2.2 -1.26 c1.1 -1.24 2.58 -1.82 4.12 -1.82 c2.96 0 4.16 1.62 4.16 3.14 l0 6.9 l-2.96 0 l0 -0.7 c-0.46 0.48 -1.28 0.84 -2.2 0.84 c-2.7 0 -3.74 -1.2 -3.74 -3.04 c0 -2.08 1.68 -3.48 4.4 -3.48 l1.54 0 c0 -0.74 -0.56 -1.22 -1.4 -1.22 c-0.86 0 -1.28 0.16 -1.72 0.64 z M6.38 16.740000000000002 l0 -0.88 l-1.74 0 c-0.78 0 -1.36 0.54 -1.24 1.3 c0.08 0.54 0.56 0.76 1.24 0.76 c1.3 0 1.74 -0.74 1.74 -1.18 z M16.474999999999998 9.98 c2.9 0 4.82 2.18 4.82 5.1 s-2.12 5.08 -5.02 5.08 c-0.64 0 -1.72 -0.36 -2.04 -0.82 l0 0.66 l-2.96 0 l0 -14.52 l2.96 0 l0 5.34 c0.34 -0.5 1.62 -0.84 2.24 -0.84 z M16.075 17.92 c1.24 0 2.26 -1.28 2.26 -2.84 c0 -1.58 -1.02 -2.86 -2.26 -2.86 c-1.36 0 -2.24 1.54 -2.24 2.86 s0.9 2.84 2.24 2.84 z M25.809999999999995 10.12 l0 9.88 l-2.96 0 l0 -9.88 l2.96 0 z M25.889999999999997 7.279999999999999 c0 0.84 -0.68 1.5 -1.58 1.5 c-0.86 0 -1.56 -0.66 -1.56 -1.5 c0 -0.82 0.7 -1.46 1.56 -1.46 c0.9 0 1.58 0.64 1.58 1.46 z M34.125 10.26 l-0.4 2.22 c-0.74 -0.32 -0.88 -0.26 -1.22 -0.26 c-1.2 0 -1.9 0.64 -1.9 2.22 l0 5.56 l-2.96 0 l0 -9.88 l2.96 0 l0 0.88 c0.38 -0.68 1.42 -1.02 2.08 -1.02 c0.62 0 0.98 0.02 1.44 0.28 z M46.714999999999996 20 l-3.2 -4.06 c-0.08 0.08 -0.22 0.18 -0.34 0.28 l0 3.78 l-2.98 0 l0 -14.52 l2.98 0 l0 7.12 l2.84 -2.48 l4.42 0 l-4.78 4 c1.46 1.8 3.38 4.14 4.78 5.88 l-3.72 0 z M60.83 14.36 l0 5.64 l-2.96 0 l0 -5.64 c0 -1.52 -0.4 -2.16 -1.56 -2.16 c-1.2 0 -1.9 0.64 -1.9 2.16 l0 5.64 l-2.96 0 l0 -14.52 l2.96 0 l0 5.74 c0.38 -1.1 1.82 -1.24 2.68 -1.24 c2.76 0 3.74 1.34 3.74 4.38 z"></path></g></svg>
